<svg xmlns="http://www.w3.org/2000/svg" width="49" height="24" viewBox="0 0 49 24">
    <g fill="#424242" fill-rule="evenodd">
        <path d="M1.485 12c0 .412-.334.75-.743.75A.748.748 0 0 1 0 12c0-.412.334-.75.742-.75.409 0 .743.338.743.75M4.455 14.25c0 .412-.335.75-.743.75a.748.748 0 0 1-.742-.75v-4.5c0-.412.334-.75.742-.75s.743.338.743.75v4.5zM7.424 17.7c0 .413-.334.75-.742.75a.748.748 0 0 1-.743-.75V6.3c0-.412.334-.75.743-.75.408 0 .742.338.742.75v11.4zM10.394 18.75c0 .413-.334.75-.742.75a.748.748 0 0 1-.743-.75V5.25c0-.412.334-.75.743-.75.408 0 .742.338.742.75v13.5zM13.364 23.25c0 .413-.334.75-.743.75a.748.748 0 0 1-.742-.75V.75c0-.412.334-.75.742-.75.409 0 .743.338.743.75v22.5zM16.333 22.35c0 .412-.334.75-.742.75a.748.748 0 0 1-.743-.75V1.65c0-.412.335-.75.743-.75s.742.338.742.75v20.7zM19.303 14.25c0 .412-.334.75-.742.75a.748.748 0 0 1-.743-.75v-4.5c0-.412.334-.75.743-.75.408 0 .742.338.742.75v4.5zM22.273 12c0 .412-.334.75-.743.75a.748.748 0 0 1-.742-.75c0-.412.334-.75.742-.75.409 0 .743.338.743.75M25.242 12c0 .412-.334.75-.742.75a.748.748 0 0 1-.742-.75c0-.412.334-.75.742-.75s.742.338.742.75M47.515 12c0 .412.334.75.743.75A.748.748 0 0 0 49 12a.748.748 0 0 0-.742-.75.748.748 0 0 0-.743.75M44.545 14.25c0 .412.335.75.743.75a.748.748 0 0 0 .742-.75v-4.5a.748.748 0 0 0-.742-.75.748.748 0 0 0-.743.75v4.5zM41.576 17.7c0 .413.334.75.742.75a.748.748 0 0 0 .743-.75V6.3a.748.748 0 0 0-.743-.75.748.748 0 0 0-.742.75v11.4zM38.606 18.75c0 .413.334.75.742.75a.748.748 0 0 0 .743-.75V5.25a.748.748 0 0 0-.743-.75.748.748 0 0 0-.742.75v13.5zM35.636 23.25c0 .413.334.75.743.75a.748.748 0 0 0 .742-.75V.75A.748.748 0 0 0 36.38 0a.748.748 0 0 0-.743.75v22.5zM32.667 22.35c0 .412.334.75.742.75a.748.748 0 0 0 .743-.75V1.65a.748.748 0 0 0-.743-.75.748.748 0 0 0-.742.75v20.7zM29.697 14.25c0 .412.334.75.742.75a.748.748 0 0 0 .743-.75v-4.5a.748.748 0 0 0-.743-.75.748.748 0 0 0-.742.75v4.5zM26.727 12c0 .412.334.75.743.75a.748.748 0 0 0 .742-.75.748.748 0 0 0-.742-.75.748.748 0 0 0-.743.75"/>
    </g>
</svg>
