<svg xmlns="http://www.w3.org/2000/svg" xmlns:xlink="http://www.w3.org/1999/xlink" width="221" height="30" viewBox="0 0 221 30">
    <defs>
        <path id="a" d="M.295 14.8h11.93V.096H.295V14.8z"/>
        <path id="c" d="M8.048.368v14.16H.104V.368z"/>
    </defs>
    <g fill="none" fill-rule="evenodd">
        <path fill="#424242" d="M72.05 19.977h8.628c.2 0 .373.072.519.217a.71.71 0 0 1 .218.518v2.886c0 .201-.073.372-.218.518a.709.709 0 0 1-.519.218h-12.94a.707.707 0 0 1-.519-.218.703.703 0 0 1-.219-.518V6.008c0-.2.073-.372.219-.517a.71.71 0 0 1 .519-.218h12.721c.2 0 .373.073.52.218a.704.704 0 0 1 .218.516v2.887c0 .2-.073.373-.219.517a.708.708 0 0 1-.519.219h-8.408v2.94h7.808c.2 0 .373.073.519.218a.71.71 0 0 1 .219.517v2.887c0 .2-.074.373-.219.517a.71.71 0 0 1-.519.218h-7.808v3.05zM88.923 14.585v9.013c0 .2-.073.372-.219.518a.71.71 0 0 1-.519.218H84.61a.707.707 0 0 1-.52-.218.703.703 0 0 1-.218-.518V6.008c0-.2.073-.372.219-.518a.71.71 0 0 1 .519-.218h3.166c.51 0 .9.246 1.173.736l4.423 7.543 4.423-7.543c.274-.49.665-.736 1.175-.736h3.166c.2 0 .373.074.518.218.146.146.22.318.22.518v17.59c0 .2-.074.372-.22.518a.707.707 0 0 1-.518.218H98.56a.709.709 0 0 1-.52-.218.706.706 0 0 1-.217-.518v-9.013l-2.567 4.493c-.127.2-.268.364-.423.49a.894.894 0 0 1-.587.191h-1.747a.895.895 0 0 1-.587-.19 2.044 2.044 0 0 1-.423-.491l-2.566-4.493zM114.421 13.796c.801 0 1.443-.177 1.925-.531.482-.354.723-.895.723-1.62 0-.727-.241-1.267-.723-1.62-.482-.355-1.124-.532-1.925-.532h-3.358v4.303h3.358zm5.692-6.904c1.338 1.081 2.007 2.666 2.007 4.753s-.669 3.676-2.007 4.765c-1.337 1.089-3.189 1.633-5.555 1.633h-3.495v5.555c0 .2-.072.372-.218.518a.709.709 0 0 1-.519.218h-3.576a.704.704 0 0 1-.518-.218.701.701 0 0 1-.22-.518V6.008c0-.2.073-.372.22-.518a.71.71 0 0 1 .518-.218h7.808c2.366 0 4.218.54 5.555 1.62zM132.02 17.172l-2.211-6.534-2.212 6.534h4.423zm7.18 6.154c.072.182.11.318.11.408 0 .164-.06.305-.178.422a.576.576 0 0 1-.423.178h-3.44c-.31 0-.55-.068-.724-.204a.96.96 0 0 1-.34-.477l-.765-2.26h-7.262l-.765 2.26a.965.965 0 0 1-.34.477c-.173.136-.415.204-.724.204h-3.44a.578.578 0 0 1-.424-.178.574.574 0 0 1-.177-.422c0-.09.037-.226.11-.408l5.95-17.154c.092-.254.238-.467.438-.64s.464-.26.791-.26h4.423c.328 0 .592.087.792.26.2.173.346.386.436.64l5.952 17.154zM152.813 5.49a.707.707 0 0 1 .217.517v.981c0 .2-.072.373-.217.518a.71.71 0 0 1-.519.218h-5.105v15.874c0 .2-.073.372-.219.518a.71.71 0 0 1-.519.218h-1.119a.708.708 0 0 1-.519-.218.704.704 0 0 1-.218-.518V7.724h-5.106a.709.709 0 0 1-.518-.218.704.704 0 0 1-.218-.518v-.98c0-.2.072-.372.218-.518a.71.71 0 0 1 .518-.218h12.805c.2 0 .373.074.519.218M160.457 10.392a.707.707 0 0 1 .218.517v.872c0 .2-.073.372-.218.517a.712.712 0 0 1-.52.218h-1.582c-1.02 0-1.798.268-2.335.803-.537.536-.805 1.312-.805 2.328v7.951c0 .201-.073.372-.219.518a.708.708 0 0 1-.518.218h-1.01a.708.708 0 0 1-.52-.218.7.7 0 0 1-.218-.518V10.91a.7.7 0 0 1 .219-.517.709.709 0 0 1 .518-.219h1.01c.2 0 .374.074.52.22a.705.705 0 0 1 .218.516v.844c.364-.544.8-.943 1.31-1.198.509-.254 1.174-.382 1.993-.382h1.42c.2 0 .372.074.52.22"/>
        <g transform="translate(160.844 9.805)">
            <mask id="b" fill="#fff">
                <use xlink:href="#a"/>
            </mask>
            <path fill="#424242" d="M9.741 7.748l-3.22.518c-1.184.18-2.103.475-2.759.885-.655.407-.982.921-.982 1.538 0 .454.209.862.628 1.225.418.363 1.055.544 1.911.544 1.31 0 2.375-.371 3.194-1.116.819-.744 1.228-1.716 1.228-2.914v-.68zm0-2.178v-.355c0-.89-.296-1.575-.887-2.055-.592-.482-1.36-.722-2.307-.722-.727 0-1.296.122-1.707.368-.408.245-.795.613-1.16 1.102a.897.897 0 0 1-.355.3c-.127.054-.3.082-.519.082h-.818a.752.752 0 0 1-.532-.218.6.6 0 0 1-.206-.517c.055-.545.324-1.085.806-1.62C2.539 1.398 3.18.958 3.98.612A6.43 6.43 0 0 1 6.547.096c1.692 0 3.062.473 4.108 1.416 1.048.944 1.57 2.27 1.57 3.976v8.304c0 .201-.072.373-.217.518a.71.71 0 0 1-.52.218h-1.01a.708.708 0 0 1-.519-.218.707.707 0 0 1-.218-.518v-1.116c-.292.654-.91 1.171-1.856 1.552a7.554 7.554 0 0 1-2.84.572c-.928 0-1.756-.168-2.484-.504-.727-.335-1.287-.793-1.678-1.374a3.42 3.42 0 0 1-.588-1.96c0-1.362.51-2.429 1.529-3.2 1.02-.772 2.375-1.294 4.068-1.566l3.85-.626z" mask="url(#b)"/>
        </g>
        <path fill="#424242" d="M178.638 24.116a.709.709 0 0 1-.518.218h-1.01a.709.709 0 0 1-.52-.218.703.703 0 0 1-.218-.518V10.91c0-.2.073-.372.219-.517a.71.71 0 0 1 .519-.218h1.01c.2 0 .372.073.518.218a.708.708 0 0 1 .219.517V23.6c0 .2-.074.371-.219.517m.273-16.31a.711.711 0 0 1-.518.216h-1.556a.713.713 0 0 1-.52-.216.71.71 0 0 1-.217-.518V5.736c0-.2.072-.373.217-.518a.712.712 0 0 1 .52-.218h1.556c.2 0 .373.073.518.218a.706.706 0 0 1 .22.518v1.552c0 .2-.074.372-.22.518M194.664 24.116a.708.708 0 0 1-.52.218h-1.01a.706.706 0 0 1-.518-.218.704.704 0 0 1-.217-.518V16.41c0-1.36-.338-2.396-1.01-3.103-.675-.708-1.612-1.063-2.814-1.063-1.183 0-2.115.355-2.797 1.063-.683.707-1.024 1.743-1.024 3.103v7.19c0 .2-.073.371-.22.517a.707.707 0 0 1-.518.218h-1.01a.707.707 0 0 1-.518-.218.7.7 0 0 1-.219-.518V10.91a.7.7 0 0 1 .219-.517.71.71 0 0 1 .519-.218h1.01c.2 0 .373.073.518.218a.706.706 0 0 1 .219.517v.845c.4-.527.95-.968 1.651-1.321.701-.354 1.56-.531 2.58-.531 1.147 0 2.166.245 3.058.735a5.197 5.197 0 0 1 2.088 2.11c.501.917.751 2.002.751 3.255v7.596c0 .2-.072.372-.218.518M207.604 15.974v-.082c0-1.106-.35-1.991-1.05-2.655-.701-.662-1.634-.994-2.799-.994-1.055 0-1.952.337-2.689 1.008-.738.672-1.115 1.552-1.133 2.641v.082h7.67zm.765-4.22c1.128 1.234 1.692 2.913 1.692 5.037v.735c0 .2-.073.373-.217.517a.709.709 0 0 1-.52.219h-9.39v.162c.035 1.199.403 2.138 1.105 2.82.7.68 1.606 1.02 2.716 1.02.91 0 1.615-.117 2.116-.354.5-.235.95-.572 1.35-1.007.147-.146.279-.245.397-.3.118-.054.278-.082.478-.082h.819c.218 0 .4.074.547.218a.624.624 0 0 1 .19.518c-.073.49-.342.994-.805 1.51-.464.518-1.13.954-1.993 1.308-.864.354-1.898.53-3.099.53-1.165 0-2.202-.267-3.112-.803a5.902 5.902 0 0 1-2.17-2.22c-.538-.942-.861-2.004-.97-3.184a20.681 20.681 0 0 1-.054-1.253c0-.29.018-.708.054-1.253.109-1.126.432-2.142.97-3.049a5.964 5.964 0 0 1 2.156-2.152c.9-.526 1.943-.79 3.126-.79 1.947 0 3.486.618 4.614 1.852z"/>
        <g transform="translate(212.578 9.805)">
            <mask id="d" fill="#fff">
                <use xlink:href="#c"/>
            </mask>
            <path fill="#424242" d="M7.83.587a.706.706 0 0 1 .218.517v.872c0 .199-.072.372-.218.516a.711.711 0 0 1-.519.218H5.728c-1.02 0-1.798.268-2.334.803-.537.537-.805 1.312-.805 2.329v7.95c0 .202-.074.373-.22.518a.707.707 0 0 1-.518.218H.841a.709.709 0 0 1-.519-.218.702.702 0 0 1-.218-.517V1.103c0-.199.072-.371.218-.516A.71.71 0 0 1 .841.368h1.01c.2 0 .373.073.519.219.145.145.219.317.219.517v.844c.363-.544.8-.943 1.31-1.198C4.408.496 5.073.368 5.892.368h1.42c.2 0 .372.073.518.219" mask="url(#d)"/>
        </g>
        <g fill="#424242">
            <path d="M1.879 15a.941.941 0 0 1-.94.938A.941.941 0 0 1 0 15c0-.516.423-.938.94-.938.516 0 .939.422.939.938M5.636 17.813a.941.941 0 0 1-.939.937.941.941 0 0 1-.94-.938v-5.625c0-.515.423-.937.94-.937.517 0 .94.422.94.938v5.624zM9.394 22.125a.941.941 0 0 1-.94.938.941.941 0 0 1-.939-.938V7.875c0-.516.423-.938.94-.938.516 0 .939.422.939.938v14.25zM13.152 23.438a.941.941 0 0 1-.94.937.941.941 0 0 1-.94-.938V6.563c0-.515.423-.937.94-.937.517 0 .94.422.94.938v16.875zM16.91 29.063a.941.941 0 0 1-.94.937.941.941 0 0 1-.94-.938V.938c0-.515.423-.937.94-.937.516 0 .94.422.94.938v28.125zM20.667 27.938a.941.941 0 0 1-.94.937.941.941 0 0 1-.94-.938V2.063c0-.515.424-.937.94-.937.517 0 .94.422.94.938v25.875zM24.424 17.813a.941.941 0 0 1-.94.937.941.941 0 0 1-.939-.938v-5.625c0-.515.423-.937.94-.937.517 0 .94.422.94.938v5.624zM28.182 15a.941.941 0 0 1-.94.938.941.941 0 0 1-.939-.938c0-.516.423-.938.94-.938.516 0 .939.422.939.938M31.94 15a.941.941 0 0 1-.94.938.941.941 0 0 1-.94-.938c0-.516.423-.938.94-.938.517 0 .94.422.94.938M60.121 15c0 .516.423.938.94.938.516 0 .939-.422.939-.938a.941.941 0 0 0-.94-.938.941.941 0 0 0-.939.938M56.364 17.813c0 .515.422.937.939.937.517 0 .94-.422.94-.938v-5.625a.941.941 0 0 0-.94-.937.941.941 0 0 0-.94.938v5.624zM52.606 22.125c0 .516.423.938.94.938.516 0 .939-.422.939-.938V7.875a.941.941 0 0 0-.94-.938.941.941 0 0 0-.939.938v14.25zM48.848 23.438c0 .515.423.937.94.937.517 0 .94-.422.94-.938V6.563a.941.941 0 0 0-.94-.937.941.941 0 0 0-.94.938v16.875zM45.09 29.063c0 .515.424.937.94.937.517 0 .94-.422.94-.938V.938A.941.941 0 0 0 46.03 0a.941.941 0 0 0-.94.938v28.125zM41.333 27.938c0 .515.423.937.94.937.516 0 .94-.422.94-.938V2.063a.941.941 0 0 0-.94-.937.941.941 0 0 0-.94.938v25.875zM37.576 17.813c0 .515.422.937.94.937.516 0 .939-.422.939-.938v-5.625a.941.941 0 0 0-.94-.937.941.941 0 0 0-.94.938v5.624zM33.818 15c0 .516.423.938.94.938.516 0 .939-.422.939-.938a.941.941 0 0 0-.94-.938.941.941 0 0 0-.939.938"/>
        </g>
    </g>
</svg>
