<svg xmlns="http://www.w3.org/2000/svg" width="303" height="48" viewBox="0 0 303 48">
    <g fill="#FFF" fill-rule="evenodd">
        <path d="M0 35.003h3.104v-3.104H0zM0 30.93h3.104v-3.104H0zM0 26.855h3.104V23.75H0zM4.333 39.078h3.104v-3.104H4.333zM4.333 35.003h3.104v-3.104H4.333zM4.333 30.93h3.104v-3.104H4.333zM4.333 26.855h3.104V23.75H4.333zM4.333 22.897h3.104v-3.104H4.333zM4.333 18.938h3.104v-3.104H4.333zM8.667 43.152h3.104v-3.104H8.667zM8.667 39.078h3.104v-3.104H8.667zM8.667 35.003h3.104v-3.104H8.667zM8.667 30.93h3.104v-3.104H8.667zM8.667 26.855h3.104V23.75H8.667zM8.667 22.897h3.104v-3.104H8.667zM8.667 18.938h3.104v-3.104H8.667zM8.667 14.98h3.104v-3.104H8.667zM8.667 11.02h3.104V7.918H8.667zM13.001 47.226h3.104v-3.104h-3.104zM13 43.152h3.104v-3.104H13zM13 39.078h3.104v-3.104H13zM13 35.003h3.104v-3.104H13zM13 30.93h3.104v-3.104H13zM13 26.855h3.104V23.75H13zM13 22.897h3.104v-3.104H13zM13 18.938h3.104v-3.104H13zM13 14.98h3.104v-3.104H13zM13 11.02h3.104V7.918H13zM13 7.063h3.104V3.959H13zM13.001 3.104h3.104V0h-3.104zM17.334 39.078h3.104v-3.104h-3.104zM17.334 35.003h3.104v-3.104h-3.104zM17.334 30.93h3.104v-3.104h-3.104zM17.334 26.855h3.104V23.75h-3.104zM17.334 22.897h3.104v-3.104h-3.104zM17.334 18.938h3.104v-3.104h-3.104zM21.667 39.078h3.104v-3.104h-3.104zM21.667 35.003h3.104v-3.104h-3.104zM21.667 30.93h3.104v-3.104h-3.104zM21.667 26.855h3.104V23.75h-3.104zM21.667 22.897h3.104v-3.104h-3.104zM21.667 18.938h3.104v-3.104h-3.104zM21.667 14.98h3.104v-3.104h-3.104zM26.001 35.003h3.104v-3.104h-3.104zM26.001 30.93h3.104v-3.104h-3.104zM26.001 26.855h3.104V23.75h-3.104zM30.334 39.078h3.104v-3.104h-3.104zM30.334 35.003h3.104v-3.104h-3.104zM30.334 30.93h3.104v-3.104h-3.104zM30.334 26.855h3.104V23.75h-3.104zM30.334 22.897h3.104v-3.104h-3.104zM30.334 18.938h3.104v-3.104h-3.104zM34.668 43.152h3.104v-3.104h-3.104zM34.668 39.078h3.104v-3.104h-3.104zM34.668 35.003h3.104v-3.104h-3.104zM34.668 30.93h3.104v-3.104h-3.104zM34.668 26.855h3.104V23.75h-3.104zM34.668 22.897h3.104v-3.104h-3.104zM34.668 18.938h3.104v-3.104h-3.104zM34.668 14.98h3.104v-3.104h-3.104zM34.668 11.02h3.104V7.918h-3.104zM39.001 47.226h3.104v-3.104h-3.104zM39.001 43.152h3.104v-3.104h-3.104zM39.001 39.078h3.104v-3.104h-3.104zM39.001 35.003h3.104v-3.104h-3.104zM39.001 30.93h3.104v-3.104h-3.104zM39.001 26.855h3.104V23.75h-3.104zM39.001 22.897h3.104v-3.104h-3.104zM39.001 18.938h3.104v-3.104h-3.104zM39.001 14.98h3.104v-3.104h-3.104zM39.001 11.02h3.104V7.918h-3.104zM39.001 7.063h3.104V3.959h-3.104zM39.001 3.104h3.104V0h-3.104zM43.335 39.078h3.104v-3.104h-3.104zM43.335 35.003h3.104v-3.104h-3.104zM43.335 30.93h3.104v-3.104h-3.104zM43.335 26.855h3.104V23.75h-3.104zM43.335 22.897h3.104v-3.104h-3.104zM43.335 18.938h3.104v-3.104h-3.104zM43.335 14.98h3.104v-3.104h-3.104zM43.335 11.02h3.104V7.918h-3.104zM47.668 30.93h3.104v-3.104h-3.104zM47.668 26.855h3.104V23.75h-3.104zM52.002 47.226h3.104v-3.104h-3.104zM52.002 43.152h3.104v-3.104h-3.104zM52.002 39.078h3.104v-3.104h-3.104zM52.002 35.003h3.104v-3.104h-3.104zM52.002 30.93h3.104v-3.104h-3.104zM52.002 26.855h3.104V23.75h-3.104zM52.002 22.897h3.104v-3.104h-3.104zM56.335 43.152h3.104v-3.104h-3.104zM56.335 39.078h3.104v-3.104h-3.104zM56.335 35.003h3.104v-3.104h-3.104zM56.335 30.93h3.104v-3.104h-3.104zM56.335 26.855h3.104V23.75h-3.104zM56.335 22.897h3.104v-3.104h-3.104zM56.335 18.938h3.104v-3.104h-3.104zM56.335 14.98h3.104v-3.104h-3.104zM60.669 39.078h3.104v-3.104h-3.104zM60.669 35.003h3.104v-3.104h-3.104zM60.669 30.93h3.104v-3.104h-3.104zM60.669 26.855h3.104V23.75h-3.104zM60.669 22.897h3.104v-3.104h-3.104zM60.669 18.938h3.104v-3.104h-3.104zM65.002 30.93h3.104v-3.104h-3.104zM65.002 26.855h3.104V23.75h-3.104zM65.002 22.897h3.104v-3.104h-3.104zM69.336 35.003h3.104v-3.104h-3.104zM69.336 30.93h3.104v-3.104h-3.104zM69.336 26.855h3.104V23.75h-3.104zM69.336 22.897h3.104v-3.104h-3.104zM73.669 26.855h3.104V23.75h-3.104zM78.003 30.93h3.104v-3.104h-3.104zM78.003 26.855h3.104V23.75h-3.104zM78.003 22.897h3.104v-3.104h-3.104zM78.003 18.938h3.104v-3.104h-3.104zM78.003 14.98h3.104v-3.104h-3.104zM82.336 35.003h3.104v-3.104h-3.104zM82.336 30.93h3.104v-3.104h-3.104zM82.336 26.855h3.104V23.75h-3.104zM82.336 22.897h3.104v-3.104h-3.104zM82.336 18.938h3.104v-3.104h-3.104zM82.336 14.98h3.104v-3.104h-3.104zM82.336 11.02h3.104V7.918h-3.104zM82.336 7.063h3.104V3.959h-3.104zM82.337 3.104h3.104V0h-3.104zM86.67 43.152h3.104v-3.104H86.67zM86.67 39.078h3.104v-3.104H86.67zM86.67 35.003h3.104v-3.104H86.67zM86.67 30.93h3.104v-3.104H86.67zM86.67 26.855h3.104V23.75H86.67zM86.67 22.897h3.104v-3.104H86.67zM86.67 18.938h3.104v-3.104H86.67zM86.67 14.98h3.104v-3.104H86.67zM91.003 35.003h3.104v-3.104h-3.104zM91.003 30.93h3.104v-3.104h-3.104zM91.003 26.855h3.104V23.75h-3.104zM91.003 22.897h3.104v-3.104h-3.104zM91.003 18.938h3.104v-3.104h-3.104zM91.003 14.98h3.104v-3.104h-3.104zM91.003 11.02h3.104V7.918h-3.104zM91.003 7.063h3.104V3.959h-3.104zM95.337 43.152h3.104v-3.104h-3.104zM95.337 39.078h3.104v-3.104h-3.104zM95.337 35.003h3.104v-3.104h-3.104zM95.337 30.93h3.104v-3.104h-3.104zM95.337 26.855h3.104V23.75h-3.104zM95.337 22.897h3.104v-3.104h-3.104zM95.337 18.938h3.104v-3.104h-3.104zM99.67 26.855h3.104V23.75H99.67zM99.67 22.897h3.104v-3.104H99.67zM99.67 18.938h3.104v-3.104H99.67zM104.004 35.003h3.104v-3.104h-3.104zM104.004 30.93h3.104v-3.104h-3.104zM104.004 26.855h3.104V23.75h-3.104zM104.004 22.897h3.104v-3.104h-3.104zM104.004 18.938h3.104v-3.104h-3.104zM104.004 14.98h3.104v-3.104h-3.104zM108.337 39.078h3.104v-3.104h-3.104zM108.337 35.003h3.104v-3.104h-3.104zM108.337 30.93h3.104v-3.104h-3.104zM108.337 26.855h3.104V23.75h-3.104zM108.337 22.897h3.104v-3.104h-3.104zM108.337 18.938h3.104v-3.104h-3.104zM108.337 14.98h3.104v-3.104h-3.104zM108.337 11.02h3.104V7.918h-3.104zM108.337 7.063h3.104V3.959h-3.104zM108.338 3.104h3.104V0h-3.104zM112.671 26.855h3.104V23.75h-3.104zM112.671 22.897h3.104v-3.104h-3.104zM112.671 18.938h3.104v-3.104h-3.104zM112.671 14.98h3.104v-3.104h-3.104zM112.671 11.02h3.104V7.918h-3.104zM117.005 47.226h3.104v-3.104h-3.104zM117.004 43.152h3.104v-3.104h-3.104zM117.004 39.078h3.104v-3.104h-3.104zM117.004 35.003h3.104v-3.104h-3.104zM117.004 30.93h3.104v-3.104h-3.104zM117.004 26.855h3.104V23.75h-3.104zM117.004 22.897h3.104v-3.104h-3.104zM117.004 18.938h3.104v-3.104h-3.104zM121.338 39.078h3.104v-3.104h-3.104zM121.338 35.003h3.104v-3.104h-3.104zM121.338 30.93h3.104v-3.104h-3.104zM121.338 26.855h3.104V23.75h-3.104zM121.338 22.897h3.104v-3.104h-3.104zM121.338 18.938h3.104v-3.104h-3.104zM121.338 14.98h3.104v-3.104h-3.104zM125.671 30.93h3.104v-3.104h-3.104zM125.671 26.855h3.104V23.75h-3.104zM125.671 22.897h3.104v-3.104h-3.104zM125.671 18.938h3.104v-3.104h-3.104zM125.671 14.98h3.104v-3.104h-3.104zM125.671 11.02h3.104V7.918h-3.104zM125.671 7.063h3.104V3.959h-3.104zM130.005 47.226h3.104v-3.104h-3.104zM130.005 43.152h3.104v-3.104h-3.104zM130.005 39.078h3.104v-3.104h-3.104zM130.005 35.003h3.104v-3.104h-3.104zM130.005 30.93h3.104v-3.104h-3.104zM130.005 26.855h3.104V23.75h-3.104zM130.005 22.897h3.104v-3.104h-3.104zM130.005 18.938h3.104v-3.104h-3.104zM130.005 14.98h3.104v-3.104h-3.104zM130.005 11.02h3.104V7.918h-3.104zM130.005 7.063h3.104V3.959h-3.104zM130.005 3.104h3.104V0h-3.104zM134.338 35.003h3.104v-3.104h-3.104zM134.338 30.93h3.104v-3.104h-3.104zM134.338 26.855h3.104V23.75h-3.104zM134.338 22.897h3.104v-3.104h-3.104zM134.338 18.938h3.104v-3.104h-3.104zM134.338 14.98h3.104v-3.104h-3.104zM138.672 26.855h3.104V23.75h-3.104zM138.672 22.897h3.104v-3.104h-3.104zM143.005 35.003h3.104v-3.104h-3.104zM143.005 30.93h3.104v-3.104h-3.104zM143.005 26.855h3.104V23.75h-3.104zM143.005 22.897h3.104v-3.104h-3.104zM143.005 18.938h3.104v-3.104h-3.104zM143.005 14.98h3.104v-3.104h-3.104zM147.339 43.152h3.104v-3.104h-3.104zM147.339 39.078h3.104v-3.104h-3.104zM147.339 35.003h3.104v-3.104h-3.104zM147.339 30.93h3.104v-3.104h-3.104zM147.339 26.855h3.104V23.75h-3.104zM147.339 22.897h3.104v-3.104h-3.104zM147.339 18.938h3.104v-3.104h-3.104zM147.339 14.98h3.104v-3.104h-3.104zM147.339 11.02h3.104V7.918h-3.104zM151.672 39.078h3.104v-3.104h-3.104zM151.672 35.003h3.104v-3.104h-3.104zM151.672 30.93h3.104v-3.104h-3.104zM151.672 26.855h3.104V23.75h-3.104zM156.006 47.226h3.104v-3.104h-3.104zM156.006 43.152h3.104v-3.104h-3.104zM156.006 39.078h3.104v-3.104h-3.104zM156.006 35.003h3.104v-3.104h-3.104zM156.006 30.93h3.104v-3.104h-3.104zM156.006 26.855h3.104V23.75h-3.104zM156.006 22.897h3.104v-3.104h-3.104zM156.006 18.938h3.104v-3.104h-3.104zM156.006 14.98h3.104v-3.104h-3.104zM156.006 11.02h3.104V7.918h-3.104zM160.339 35.003h3.104v-3.104h-3.104zM160.339 30.93h3.104v-3.104h-3.104zM160.339 26.855h3.104V23.75h-3.104zM160.339 22.897h3.104v-3.104h-3.104zM160.339 18.938h3.104v-3.104h-3.104zM160.339 14.98h3.104v-3.104h-3.104zM164.673 26.855h3.104V23.75h-3.104zM164.673 22.897h3.104v-3.104h-3.104zM169.006 39.078h3.104v-3.104h-3.104zM169.006 35.003h3.104v-3.104h-3.104zM169.006 30.93h3.104v-3.104h-3.104zM169.006 26.855h3.104V23.75h-3.104zM169.006 22.897h3.104v-3.104h-3.104zM169.006 18.938h3.104v-3.104h-3.104zM169.006 14.98h3.104v-3.104h-3.104zM169.006 11.02h3.104V7.918h-3.104zM173.34 30.93h3.104v-3.104h-3.104zM173.34 26.855h3.104V23.75h-3.104zM177.673 35.003h3.104v-3.104h-3.104zM177.673 30.93h3.104v-3.104h-3.104zM177.673 26.855h3.104V23.75h-3.104zM177.673 22.897h3.104v-3.104h-3.104zM182.007 43.152h3.104v-3.104h-3.104zM182.007 39.078h3.104v-3.104h-3.104zM182.007 35.003h3.104v-3.104h-3.104zM182.007 30.93h3.104v-3.104h-3.104zM182.007 26.855h3.104V23.75h-3.104zM182.007 22.897h3.104v-3.104h-3.104zM182.007 18.938h3.104v-3.104h-3.104zM182.007 14.98h3.104v-3.104h-3.104zM182.007 11.02h3.104V7.918h-3.104zM186.34 47.226h3.104v-3.104h-3.104zM186.34 43.152h3.104v-3.104h-3.104zM186.34 39.078h3.104v-3.104h-3.104zM186.34 35.003h3.104v-3.104h-3.104zM186.34 30.93h3.104v-3.104h-3.104zM186.34 26.855h3.104V23.75h-3.104zM186.34 22.897h3.104v-3.104h-3.104zM186.34 18.938h3.104v-3.104h-3.104zM186.34 14.98h3.104v-3.104h-3.104zM186.34 11.02h3.104V7.918h-3.104zM186.34 7.063h3.104V3.959h-3.104zM186.34 3.104h3.104V0h-3.104zM190.674 35.003h3.104v-3.104h-3.104zM190.674 30.93h3.104v-3.104h-3.104zM190.674 26.855h3.104V23.75h-3.104zM190.674 22.897h3.104v-3.104h-3.104zM190.674 18.938h3.104v-3.104h-3.104zM190.674 14.98h3.104v-3.104h-3.104zM195.007 43.152h3.104v-3.104h-3.104zM195.007 39.078h3.104v-3.104h-3.104zM195.007 35.003h3.104v-3.104h-3.104zM195.007 30.93h3.104v-3.104h-3.104zM195.007 26.855h3.104V23.75h-3.104zM195.007 22.897h3.104v-3.104h-3.104zM195.007 18.938h3.104v-3.104h-3.104zM199.341 35.003h3.104v-3.104h-3.104zM199.341 30.93h3.104v-3.104h-3.104zM199.341 26.855h3.104V23.75h-3.104zM199.341 22.897h3.104v-3.104h-3.104zM203.674 26.855h3.104V23.75h-3.104zM203.674 22.897h3.104v-3.104h-3.104zM203.674 18.938h3.104v-3.104h-3.104zM203.674 14.98h3.104v-3.104h-3.104zM208.008 39.078h3.104v-3.104h-3.104zM208.008 35.003h3.104v-3.104h-3.104zM208.008 30.93h3.104v-3.104h-3.104zM208.008 26.855h3.104V23.75h-3.104zM208.008 22.897h3.104v-3.104h-3.104zM208.008 18.938h3.104v-3.104h-3.104zM208.008 14.98h3.104v-3.104h-3.104zM208.008 11.02h3.104V7.918h-3.104zM208.008 7.063h3.104V3.959h-3.104zM212.341 43.152h3.104v-3.104h-3.104zM212.341 39.078h3.104v-3.104h-3.104zM212.341 35.003h3.104v-3.104h-3.104zM212.341 30.93h3.104v-3.104h-3.104zM212.341 26.855h3.104V23.75h-3.104zM212.341 22.897h3.104v-3.104h-3.104zM212.341 18.938h3.104v-3.104h-3.104zM212.341 14.98h3.104v-3.104h-3.104zM212.341 11.02h3.104V7.918h-3.104zM216.675 30.93h3.104v-3.104h-3.104zM216.675 26.855h3.104V23.75h-3.104zM216.675 22.897h3.104v-3.104h-3.104zM221.008 35.003h3.104v-3.104h-3.104zM221.008 30.93h3.104v-3.104h-3.104zM221.008 26.855h3.104V23.75h-3.104zM221.008 22.897h3.104v-3.104h-3.104zM221.008 18.938h3.104v-3.104h-3.104zM221.008 14.98h3.104v-3.104h-3.104zM221.008 11.02h3.104V7.918h-3.104zM225.342 39.078h3.104v-3.104h-3.104zM225.342 35.003h3.104v-3.104h-3.104zM225.342 30.93h3.104v-3.104h-3.104zM225.342 26.855h3.104V23.75h-3.104zM225.342 22.897h3.104v-3.104h-3.104zM225.342 18.938h3.104v-3.104h-3.104zM225.342 14.98h3.104v-3.104h-3.104zM229.675 26.855h3.104V23.75h-3.104zM229.675 22.897h3.104v-3.104h-3.104zM229.675 18.938h3.104v-3.104h-3.104zM234.009 39.078h3.104v-3.104h-3.104zM234.009 35.003h3.104v-3.104h-3.104zM234.009 30.93h3.104v-3.104h-3.104zM234.009 26.855h3.104V23.75h-3.104zM234.009 22.897h3.104v-3.104h-3.104zM234.009 18.938h3.104v-3.104h-3.104zM234.009 14.98h3.104v-3.104h-3.104zM238.342 26.855h3.104V23.75h-3.104zM242.676 30.93h3.104v-3.104h-3.104zM242.676 26.855h3.104V23.75h-3.104zM242.676 22.897h3.104v-3.104h-3.104zM242.676 18.938h3.104v-3.104h-3.104zM247.009 43.152h3.104v-3.104h-3.104zM247.009 39.078h3.104v-3.104h-3.104zM247.009 35.003h3.104v-3.104h-3.104zM247.009 30.93h3.104v-3.104h-3.104zM247.009 26.855h3.104V23.75h-3.104zM247.009 22.897h3.104v-3.104h-3.104zM247.009 18.938h3.104v-3.104h-3.104zM247.009 14.98h3.104v-3.104h-3.104zM247.009 11.02h3.104V7.918h-3.104zM251.343 35.003h3.104v-3.104h-3.104zM251.343 30.93h3.104v-3.104h-3.104zM251.343 26.855h3.104V23.75h-3.104zM251.343 22.897h3.104v-3.104h-3.104zM251.343 18.938h3.104v-3.104h-3.104zM255.676 43.152h3.104v-3.104h-3.104zM255.676 39.078h3.104v-3.104h-3.104zM255.676 35.003h3.104v-3.104h-3.104zM255.676 30.93h3.104v-3.104h-3.104zM255.676 26.855h3.104V23.75h-3.104zM255.676 22.897h3.104v-3.104h-3.104zM255.676 18.938h3.104v-3.104h-3.104zM255.676 14.98h3.104v-3.104h-3.104zM255.676 11.02h3.104V7.918h-3.104zM255.676 7.063h3.104V3.959h-3.104zM255.676 3.104h3.104V0h-3.104zM260.01 39.078h3.104v-3.104h-3.104zM260.01 35.003h3.104v-3.104h-3.104zM260.01 30.93h3.104v-3.104h-3.104zM260.01 26.855h3.104V23.75h-3.104zM260.01 22.897h3.104v-3.104h-3.104zM264.343 26.855h3.104V23.75h-3.104zM264.343 22.897h3.104v-3.104h-3.104zM264.343 18.938h3.104v-3.104h-3.104zM264.343 14.98h3.104v-3.104h-3.104zM264.343 11.02h3.104V7.918h-3.104zM264.343 7.063h3.104V3.959h-3.104zM268.677 35.003h3.104v-3.104h-3.104zM268.677 30.93h3.104v-3.104h-3.104zM268.677 26.855h3.104V23.75h-3.104zM268.677 22.897h3.104v-3.104h-3.104zM268.677 18.938h3.104v-3.104h-3.104zM268.677 14.98h3.104v-3.104h-3.104zM268.677 11.02h3.104V7.918h-3.104zM273.01 39.078h3.104v-3.104h-3.104zM273.01 35.003h3.104v-3.104h-3.104zM273.01 30.93h3.104v-3.104h-3.104zM273.01 26.855h3.104V23.75h-3.104zM273.01 22.897h3.104v-3.104h-3.104zM273.01 18.938h3.104v-3.104h-3.104zM277.344 43.152h3.104v-3.104h-3.104zM277.344 39.078h3.104v-3.104h-3.104zM277.344 35.003h3.104v-3.104h-3.104zM277.344 30.93h3.104v-3.104h-3.104zM277.344 26.855h3.104V23.75h-3.104zM277.344 22.897h3.104v-3.104h-3.104zM277.344 18.938h3.104v-3.104h-3.104zM277.344 14.98h3.104v-3.104h-3.104zM277.344 11.02h3.104V7.918h-3.104zM277.344 7.063h3.104V3.959h-3.104zM281.677 26.855h3.104V23.75h-3.104zM281.677 22.897h3.104v-3.104h-3.104zM281.677 18.938h3.104v-3.104h-3.104zM286.011 35.003h3.104v-3.104h-3.104zM286.011 30.93h3.104v-3.104h-3.104zM286.011 26.855h3.104V23.75h-3.104zM286.011 22.897h3.104v-3.104h-3.104zM286.011 18.938h3.104v-3.104h-3.104zM286.011 14.98h3.104v-3.104h-3.104zM286.011 11.02h3.104V7.918h-3.104zM290.344 35.003h3.104v-3.104h-3.104zM290.344 30.93h3.104v-3.104h-3.104zM290.344 26.855h3.104V23.75h-3.104zM290.344 22.897h3.104v-3.104h-3.104zM290.344 18.938h3.104v-3.104h-3.104zM290.344 14.98h3.104v-3.104h-3.104zM290.344 11.02h3.104V7.918h-3.104zM290.344 7.063h3.104V3.959h-3.104zM294.678 43.152h3.104v-3.104h-3.104zM294.678 39.078h3.104v-3.104h-3.104zM294.678 35.003h3.104v-3.104h-3.104zM294.678 30.93h3.104v-3.104h-3.104zM294.678 26.855h3.104V23.75h-3.104zM294.678 22.897h3.104v-3.104h-3.104zM294.678 18.938h3.104v-3.104h-3.104zM299.012 26.855h3.104V23.75h-3.104zM299.012 22.897h3.104v-3.104h-3.104z"/>
    </g>
</svg>
